# Blender v2.93.5 OBJ File: ''
# www.blender.org
v -0.500000 0.010000 0.000000
v 0.500000 0.010000 0.000000
v 0.500000 0.009808 -0.001951
v -0.500000 0.009808 -0.001951
v 0.500000 0.009239 -0.003827
v -0.500000 0.009239 -0.003827
v 0.500000 0.008315 -0.005556
v -0.500000 0.008315 -0.005556
v 0.500000 0.007071 -0.007071
v -0.500000 0.007071 -0.007071
v 0.500000 0.005556 -0.008315
v -0.500000 0.005556 -0.008315
v 0.500000 0.003827 -0.009239
v -0.500000 0.003827 -0.009239
v 0.500000 0.001951 -0.009808
v -0.500000 0.001951 -0.009808
v 0.500000 0.000000 -0.010000
v -0.500000 0.000000 -0.010000
v 0.500000 -0.001951 -0.009808
v -0.500000 -0.001951 -0.009808
v 0.500000 -0.003827 -0.009239
v -0.500000 -0.003827 -0.009239
v 0.500000 -0.005556 -0.008315
v -0.500000 -0.005556 -0.008315
v 0.500000 -0.007071 -0.007071
v -0.500000 -0.007071 -0.007071
v 0.500000 -0.008315 -0.005556
v -0.500000 -0.008315 -0.005556
v 0.500000 -0.009239 -0.003827
v -0.500000 -0.009239 -0.003827
v 0.500000 -0.009808 -0.001951
v -0.500000 -0.009808 -0.001951
v 0.500000 -0.010000 0.000000
v -0.500000 -0.010000 0.000000
v 0.500000 -0.009808 0.001951
v -0.500000 -0.009808 0.001951
v 0.500000 -0.009239 0.003827
v -0.500000 -0.009239 0.003827
v 0.500000 -0.008315 0.005556
v -0.500000 -0.008315 0.005556
v 0.500000 -0.007071 0.007071
v -0.500000 -0.007071 0.007071
v 0.500000 -0.005556 0.008315
v -0.500000 -0.005556 0.008315
v 0.500000 -0.003827 0.009239
v -0.500000 -0.003827 0.009239
v 0.500000 -0.001951 0.009808
v -0.500000 -0.001951 0.009808
v 0.500000 0.000000 0.010000
v -0.500000 0.000000 0.010000
v 0.500000 0.001951 0.009808
v -0.500000 0.001951 0.009808
v 0.500000 0.003827 0.009239
v -0.500000 0.003827 0.009239
v 0.500000 0.005556 0.008315
v -0.500000 0.005556 0.008315
v 0.500000 0.007071 0.007071
v -0.500000 0.007071 0.007071
v 0.500000 0.008315 0.005556
v -0.500000 0.008315 0.005556
v 0.500000 0.009239 0.003827
v -0.500000 0.009239 0.003827
v 0.500000 0.009808 0.001951
v -0.500000 0.009808 0.001951
vn 0.0000 0.9952 -0.0980
vn 0.0000 0.9569 -0.2903
vn 0.0000 0.8819 -0.4714
vn 0.0000 0.7730 -0.6344
vn 0.0000 0.6344 -0.7730
vn 0.0000 0.4714 -0.8819
vn 0.0000 0.2903 -0.9569
vn 0.0000 0.0980 -0.9952
vn 0.0000 -0.0980 -0.9952
vn 0.0000 -0.2903 -0.9569
vn 0.0000 -0.4714 -0.8819
vn 0.0000 -0.6344 -0.7730
vn 0.0000 -0.7730 -0.6344
vn 0.0000 -0.8819 -0.4714
vn 0.0000 -0.9569 -0.2903
vn 0.0000 -0.9952 -0.0980
vn 0.0000 -0.9952 0.0980
vn 0.0000 -0.9569 0.2903
vn 0.0000 -0.8819 0.4714
vn 0.0000 -0.7730 0.6344
vn 0.0000 -0.6344 0.7730
vn 0.0000 -0.4714 0.8819
vn 0.0000 -0.2903 0.9569
vn 0.0000 -0.0980 0.9952
vn 0.0000 0.0980 0.9952
vn 0.0000 0.2903 0.9569
vn 0.0000 0.4714 0.8819
vn 0.0000 0.6344 0.7730
vn 0.0000 0.7730 0.6344
vn 0.0000 0.8819 0.4714
vn 1.0000 0.0000 0.0000
vn 0.0000 0.9569 0.2903
vn 0.0000 0.9952 0.0980
vn -1.0000 0.0000 0.0000
s 1
f 1//1 2//1 3//1 4//1
f 4//2 3//2 5//2 6//2
f 6//3 5//3 7//3 8//3
f 8//4 7//4 9//4 10//4
f 10//5 9//5 11//5 12//5
f 12//6 11//6 13//6 14//6
f 14//7 13//7 15//7 16//7
f 16//8 15//8 17//8 18//8
f 18//9 17//9 19//9 20//9
f 20//10 19//10 21//10 22//10
f 22//11 21//11 23//11 24//11
f 24//12 23//12 25//12 26//12
f 26//13 25//13 27//13 28//13
f 28//14 27//14 29//14 30//14
f 30//15 29//15 31//15 32//15
f 32//16 31//16 33//16 34//16
f 34//17 33//17 35//17 36//17
f 36//18 35//18 37//18 38//18
f 38//19 37//19 39//19 40//19
f 40//20 39//20 41//20 42//20
f 42//21 41//21 43//21 44//21
f 44//22 43//22 45//22 46//22
f 46//23 45//23 47//23 48//23
f 48//24 47//24 49//24 50//24
f 50//25 49//25 51//25 52//25
f 52//26 51//26 53//26 54//26
f 54//27 53//27 55//27 56//27
f 56//28 55//28 57//28 58//28
f 58//29 57//29 59//29 60//29
f 60//30 59//30 61//30 62//30
f 3//31 2//31 63//31 61//31 59//31 57//31 55//31 53//31 51//31 49//31 47//31 45//31 43//31 41//31 39//31 37//31 35//31 33//31 31//31 29//31 27//31 25//31 23//31 21//31 19//31 17//31 15//31 13//31 11//31 9//31 7//31 5//31
f 62//32 61//32 63//32 64//32
f 64//33 63//33 2//33 1//33
f 1//34 4//34 6//34 8//34 10//34 12//34 14//34 16//34 18//34 20//34 22//34 24//34 26//34 28//34 30//34 32//34 34//34 36//34 38//34 40//34 42//34 44//34 46//34 48//34 50//34 52//34 54//34 56//34 58//34 60//34 62//34 64//34
